<?xml version="1.0" encoding="UTF-8" standalone="no"?>
<svg
   xmlns:dc="http://purl.org/dc/elements/1.1/"
   xmlns:cc="http://creativecommons.org/ns#"
   xmlns:rdf="http://www.w3.org/1999/02/22-rdf-syntax-ns#"
   xmlns:svg="http://www.w3.org/2000/svg"
   xmlns="http://www.w3.org/2000/svg"
   xmlns:sodipodi="http://sodipodi.sourceforge.net/DTD/sodipodi-0.dtd"
   xmlns:inkscape="http://www.inkscape.org/namespaces/inkscape"
   inkscape:export-ydpi="200.1039"
   inkscape:export-xdpi="200.1039"
   inkscape:export-filename="/Users/mjf/Desktop/fw+sc.png"
   sodipodi:docname="fw+sc.svg"
   inkscape:version="1.0rc1 (09960d6, 2020-04-09)"
   id="svg8"
   version="1.1"
   viewBox="0 0 182.29791 40.745834"
   height="40.745834mm"
   width="182.29791mm">
  <defs
     id="defs2">
    <clipPath
       id="clip1">
      <path
         inkscape:connector-curvature="0"
         d="m 179,101 h 12.52734 v 21 H 179 Z m 0,0"
         id="path28" />
    </clipPath>
  </defs>
  <sodipodi:namedview
     inkscape:window-maximized="0"
     inkscape:window-y="23"
     inkscape:window-x="0"
     inkscape:window-height="855"
     inkscape:window-width="1440"
     fit-margin-bottom="0"
     fit-margin-right="0"
     fit-margin-left="0"
     fit-margin-top="0"
     showgrid="false"
     inkscape:document-rotation="0"
     inkscape:current-layer="layer1"
     inkscape:document-units="mm"
     inkscape:cy="165"
     inkscape:cx="358.5"
     inkscape:zoom="1"
     inkscape:pageshadow="2"
     inkscape:pageopacity="0.0"
     borderopacity="1.0"
     bordercolor="#666666"
     pagecolor="#ffffff"
     id="base" />
  <metadata
     id="metadata5">
    <rdf:RDF>
      <cc:Work
         rdf:about="">
        <dc:format>image/svg+xml</dc:format>
        <dc:type
           rdf:resource="http://purl.org/dc/dcmitype/StillImage" />
        <dc:title></dc:title>
      </cc:Work>
    </rdf:RDF>
  </metadata>
  <g
     transform="translate(-12.7,-18.785416)"
     id="layer1"
     inkscape:groupmode="layer"
     inkscape:label="Layer 1">
    <g
       style="fill:#0000ff"
       transform="matrix(0.23949978,0,0,0.23949978,19.133372,23.107199)"
       id="surface6568">
      <path
         inkscape:connector-curvature="0"
         style="fill:#0000ff;fill-opacity:1;fill-rule:nonzero;stroke:none"
         d="m 63.039062,37.714844 c 0.882813,-0.07031 1.578126,-0.800782 1.578126,-1.703125 0,-0.902344 -0.695313,-1.632813 -1.578126,-1.703125 V 20.234375 h 30.957032 v 62.667969 c -2.5625,-0.722656 -7.085938,-2.28125 -11.902344,-5.226563 0.222656,-0.289062 0.359375,-0.640625 0.359375,-1.03125 0,-0.949219 -0.769531,-1.71875 -1.71875,-1.71875 -0.632813,0 -1.171875,0.355469 -1.46875,0.867188 -7.109375,-5.125 -14.128906,-13.460938 -15.828125,-26.738281 0.472656,-0.308594 0.792969,-0.828126 0.792969,-1.433594 0,-0.726563 -0.449219,-1.339844 -1.085938,-1.59375 -0.06641,-1.050782 -0.105469,-2.121094 -0.105469,-3.226563 z M 128.48828,20.234375 v 22.566406 c 0,2.949219 -0.25391,5.679688 -0.70312,8.226563 H 97.53125 V 20.234375 Z M 124.45313,57.25 c 0,-1.136719 0.19921,-1.984375 0.46484,-2.671875 0,-0.0078 0,-0.0078 0.008,-0.01563 h 2.09766 c -0.53906,2.019531 -1.20313,3.90625 -1.97656,5.664062 C 124.71875,59.492188 124.45703,58.5625 124.45703,57.25 m -1.95312,7.753906 c -1.54297,2.453125 -3.30078,4.597656 -5.16407,6.46875 -0.0898,-0.457031 -0.14843,-0.96875 -0.14843,-1.566406 0,-2.09375 0.67187,-3.21875 1.21093,-4.117188 0.42579,-0.714843 0.67969,-1.144531 0.67969,-2.210937 0,-1.070313 -0.2539,-1.5 -0.67969,-2.210937 -0.53906,-0.898438 -1.21093,-2.023438 -1.21093,-4.117188 0,-1.113281 0.1914,-1.953125 0.44922,-2.628906 0.008,-0.02344 0.0156,-0.03516 0.0234,-0.05859 h 3.67969 c -0.26953,0.6875 -0.47266,1.542969 -0.47266,2.6875 0,2.09375 0.67188,3.21875 1.20704,4.117188 0.42578,0.710937 0.68359,1.140624 0.68359,2.210937 0,0.636719 -0.0937,1.046875 -0.25781,1.425781 m -7.6875,0.785156 c -0.53907,0.898438 -1.20703,2.023438 -1.20703,4.117188 0,1.980469 0.59765,3.089844 1.11718,3.96875 -0.83203,0.699219 -1.67578,1.351562 -2.51953,1.960938 -0.0586,0.03906 -0.11328,0.07031 -0.16015,0.117187 -0.082,0.05469 -0.16407,0.109375 -0.2461,0.167969 -0.0234,-0.980469 -0.26953,-1.40625 -0.67969,-2.09375 -0.53906,-0.898438 -1.20703,-2.023438 -1.20703,-4.121094 0,-2.09375 0.66797,-3.21875 1.20703,-4.117188 0.42579,-0.714843 0.6836,-1.144531 0.6836,-2.210937 0,-1.070313 -0.25781,-1.5 -0.6836,-2.210937 -0.53906,-0.898438 -1.20703,-2.023438 -1.20703,-4.117188 0,-1.144531 0.19922,-2 0.46875,-2.6875 h 3.69532 c -0.26563,0.6875 -0.46485,1.539062 -0.46485,2.683594 0,2.09375 0.66797,3.214844 1.20703,4.117187 0.42578,0.710938 0.6836,1.140625 0.6836,2.207031 0,1.070313 -0.25782,1.5 -0.6836,2.210938 m -7.27734,8.242188 c 0.42578,0.714843 0.68359,1.144531 0.68359,2.214843 0,1.070313 -0.25781,1.5 -0.68359,2.214844 -0.0859,0.144531 -0.17578,0.296875 -0.26563,0.457031 -1.55078,0.839844 -3.03906,1.539063 -4.41406,2.113282 0.22656,-1.15625 0.67578,-1.921876 1.0625,-2.570313 0.42578,-0.714844 0.6836,-1.144531 0.6836,-2.214844 0,-1.070312 -0.25782,-1.5 -0.6836,-2.214843 -0.53515,-0.902344 -1.20703,-2.023438 -1.20703,-4.121094 0,-2.09375 0.67188,-3.21875 1.20703,-4.121094 0.42578,-0.710938 0.6836,-1.140625 0.6836,-2.210938 0,-1.066406 -0.25782,-1.496093 -0.6836,-2.207031 -0.53515,-0.902343 -1.20703,-2.023437 -1.20703,-4.117187 0,-1.148438 0.20313,-2 0.47266,-2.6875 h 3.61328 c -0.26563,0.6875 -0.46485,1.542968 -0.46485,2.6875 0,2.09375 0.66797,3.214844 1.20704,4.117187 0.42578,0.710938 0.68359,1.140625 0.68359,2.207031 0,1.070313 -0.25781,1.5 -0.68359,2.210938 -0.53907,0.902344 -1.20704,2.027344 -1.20704,4.121094 0,2.097656 0.66797,3.21875 1.20704,4.121094 m -7.19922,0 c 0.42968,0.714843 0.68359,1.144531 0.68359,2.214843 0,1.070313 -0.25391,1.5 -0.68359,2.214844 -0.519535,0.875 -1.164066,1.96875 -1.199222,3.957031 -0.597657,0.195313 -1.136719,0.355469 -1.613282,0.488282 V 54.558594 h 2.078125 c -0.269531,0.6875 -0.472656,1.539062 -0.472656,2.6875 0,2.09375 0.671875,3.214844 1.210935,4.117187 0.42578,0.710938 0.67969,1.140625 0.67969,2.207031 0,1.070313 -0.25391,1.5 -0.68359,2.210938 -0.53516,0.902344 -1.207035,2.027344 -1.207035,4.121094 0,2.097656 0.671875,3.21875 1.207035,4.121094 M 59.289062,42.800781 c 0,36.84375 35.753907,44.238281 36.117188,44.308594 l 0.355469,0.07422 0.359375,-0.07422 c 0.363281,-0.07031 36.117186,-7.464844 36.117186,-44.308594 v -26.3125 H 59.289062 Z m 28.011719,35.558594 c 0.949219,0 1.71875,-0.765625 1.71875,-1.714844 0,-0.949219 -0.769531,-1.71875 -1.71875,-1.71875 -0.949219,0 -1.71875,0.769531 -1.71875,1.71875 0,0.949219 0.769531,1.714844 1.71875,1.714844 m 0,-11.609375 c 0.949219,0 1.71875,-0.765625 1.71875,-1.714844 0,-0.949218 -0.769531,-1.71875 -1.71875,-1.71875 -0.949219,0 -1.71875,0.769532 -1.71875,1.71875 0,0.949219 0.769531,1.714844 1.71875,1.714844 m -14,-3.433594 c -0.949219,0 -1.71875,0.769532 -1.71875,1.71875 0,0.949219 0.769531,1.71875 1.71875,1.71875 0.949219,0 1.71875,-0.769531 1.71875,-1.71875 0,-0.949218 -0.769531,-1.71875 -1.71875,-1.71875 m 7,0 c -0.949219,0 -1.71875,0.769532 -1.71875,1.71875 0,0.949219 0.769531,1.71875 1.71875,1.71875 0.949219,0 1.71875,-0.769531 1.71875,-1.71875 0,-0.949218 -0.769531,-1.71875 -1.71875,-1.71875 m 10.234375,5.804688 c -0.949218,0 -1.71875,0.769531 -1.71875,1.71875 0,0.949218 0.769532,1.714844 1.71875,1.714844 0.949219,0 1.714844,-0.765626 1.714844,-1.714844 0,-0.949219 -0.765625,-1.71875 -1.714844,-1.71875 m -6.824218,0 c -0.949219,0 -1.71875,0.769531 -1.71875,1.71875 0,0.949218 0.769531,1.714844 1.71875,1.714844 0.949218,0 1.71875,-0.765626 1.71875,-1.714844 0,-0.949219 -0.769532,-1.71875 -1.71875,-1.71875 m -6.820313,3.433594 c 0.945313,0 1.714844,-0.769532 1.714844,-1.714844 0,-0.949219 -0.769531,-1.71875 -1.714844,-1.71875 -0.949219,0 -1.71875,0.769531 -1.71875,1.71875 0,0.945312 0.769531,1.714844 1.71875,1.714844 M 66.300781,55.140625 c 0.949219,0 1.71875,-0.765625 1.71875,-1.714844 0,-0.949219 -0.769531,-1.71875 -1.71875,-1.71875 -0.949219,0 -1.71875,0.769531 -1.71875,1.71875 0,0.949219 0.769531,1.714844 1.71875,1.714844 m 21,0 c 0.949219,0 1.71875,-0.765625 1.71875,-1.714844 0,-0.949219 -0.769531,-1.71875 -1.71875,-1.71875 -0.949219,0 -1.71875,0.769531 -1.71875,1.71875 0,0.949219 0.769531,1.714844 1.71875,1.714844 m -14,-3.433594 c -0.949219,0 -1.71875,0.769531 -1.71875,1.71875 0,0.949219 0.769531,1.71875 1.71875,1.71875 0.949219,0 1.71875,-0.769531 1.71875,-1.71875 0,-0.949219 -0.769531,-1.71875 -1.71875,-1.71875 m 7,3.433594 c 0.949219,0 1.71875,-0.765625 1.71875,-1.714844 0,-0.949219 -0.769531,-1.71875 -1.71875,-1.71875 -0.949219,0 -1.71875,0.769531 -1.71875,1.71875 0,0.949219 0.769531,1.714844 1.71875,1.714844 m 10.234375,2.371094 c -0.949218,0 -1.71875,0.769531 -1.71875,1.71875 0,0.949219 0.769532,1.714843 1.71875,1.714843 0.949219,0 1.714844,-0.765624 1.714844,-1.714843 0,-0.949219 -0.765625,-1.71875 -1.714844,-1.71875 m -6.824218,0 c -0.949219,0 -1.71875,0.769531 -1.71875,1.71875 0,0.949219 0.769531,1.714843 1.71875,1.714843 0.949218,0 1.71875,-0.765624 1.71875,-1.714843 0,-0.949219 -0.769532,-1.71875 -1.71875,-1.71875 m -13.644532,3.433593 c 0.949219,0 1.71875,-0.765624 1.71875,-1.714843 0,-0.949219 -0.769531,-1.71875 -1.71875,-1.71875 -0.949218,0 -1.71875,0.769531 -1.71875,1.71875 0,0.949219 0.769532,1.714843 1.71875,1.714843 m 6.824219,0 c 0.945313,0 1.714844,-0.765624 1.714844,-1.714843 0,-0.949219 -0.769531,-1.71875 -1.714844,-1.71875 -0.949219,0 -1.71875,0.769531 -1.71875,1.71875 0,0.949219 0.769531,1.714843 1.71875,1.714843 M 66.300781,43.535156 c 0.949219,0 1.71875,-0.769531 1.71875,-1.71875 0,-0.949218 -0.769531,-1.71875 -1.71875,-1.71875 -0.949219,0 -1.71875,0.769532 -1.71875,1.71875 0,0.949219 0.769531,1.71875 1.71875,1.71875 m 21,0 c 0.949219,0 1.71875,-0.769531 1.71875,-1.71875 0,-0.949218 -0.769531,-1.71875 -1.71875,-1.71875 -0.949219,0 -1.71875,0.769532 -1.71875,1.71875 0,0.949219 0.769531,1.71875 1.71875,1.71875 m -14,-3.4375 c -0.949219,0 -1.71875,0.769532 -1.71875,1.71875 0,0.949219 0.769531,1.714844 1.71875,1.714844 0.949219,0 1.71875,-0.765625 1.71875,-1.714844 0,-0.949218 -0.769531,-1.71875 -1.71875,-1.71875 m 8.71875,1.71875 c 0,-0.949218 -0.769531,-1.71875 -1.71875,-1.71875 -0.949219,0 -1.71875,0.769532 -1.71875,1.71875 0,0.949219 0.769531,1.71875 1.71875,1.71875 0.949219,0 1.71875,-0.769531 1.71875,-1.71875 m 8.515625,4.085938 c -0.949218,0 -1.71875,0.769531 -1.71875,1.71875 0,0.949218 0.769532,1.71875 1.71875,1.71875 0.949219,0 1.714844,-0.769532 1.714844,-1.71875 0,-0.949219 -0.765625,-1.71875 -1.714844,-1.71875 m -6.824218,0 c -0.949219,0 -1.71875,0.769531 -1.71875,1.71875 0,0.949218 0.769531,1.71875 1.71875,1.71875 0.949218,0 1.71875,-0.769532 1.71875,-1.71875 0,-0.949219 -0.769532,-1.71875 -1.71875,-1.71875 m -13.644532,3.4375 c 0.949219,0 1.71875,-0.769532 1.71875,-1.71875 0,-0.949219 -0.769531,-1.71875 -1.71875,-1.71875 -0.949218,0 -1.71875,0.769531 -1.71875,1.71875 0,0.949218 0.769532,1.71875 1.71875,1.71875 m 6.824219,0 c 0.945313,0 1.714844,-0.769532 1.714844,-1.71875 0,-0.949219 -0.769531,-1.71875 -1.714844,-1.71875 -0.949219,0 -1.71875,0.769531 -1.71875,1.71875 0,0.949218 0.769531,1.71875 1.71875,1.71875 M 66.300781,31.925781 c 0.949219,0 1.71875,-0.769531 1.71875,-1.71875 0,-0.949219 -0.769531,-1.71875 -1.71875,-1.71875 -0.949219,0 -1.71875,0.769531 -1.71875,1.71875 0,0.949219 0.769531,1.71875 1.71875,1.71875 m 21,0 c 0.949219,0 1.71875,-0.769531 1.71875,-1.71875 0,-0.949219 -0.769531,-1.71875 -1.71875,-1.71875 -0.949219,0 -1.71875,0.769531 -1.71875,1.71875 0,0.949219 0.769531,1.71875 1.71875,1.71875 m -14,0 c 0.949219,0 1.71875,-0.769531 1.71875,-1.71875 0,-0.949219 -0.769531,-1.71875 -1.71875,-1.71875 -0.949219,0 -1.71875,0.769531 -1.71875,1.71875 0,0.949219 0.769531,1.71875 1.71875,1.71875 m 7,0 c 0.949219,0 1.71875,-0.769531 1.71875,-1.71875 0,-0.949219 -0.769531,-1.71875 -1.71875,-1.71875 -0.949219,0 -1.71875,0.769531 -1.71875,1.71875 0,0.949219 0.769531,1.71875 1.71875,1.71875 M 62.890625,26.089844 c 0.949219,0 1.714844,-0.769532 1.714844,-1.71875 0,-0.949219 -0.765625,-1.714844 -1.714844,-1.714844 -0.949219,0 -1.71875,0.765625 -1.71875,1.714844 0,0.949218 0.769531,1.71875 1.71875,1.71875 m 27.644531,0 c 0.949219,0 1.714844,-0.769532 1.714844,-1.71875 0,-0.949219 -0.765625,-1.714844 -1.714844,-1.714844 -0.949218,0 -1.71875,0.765625 -1.71875,1.714844 0,0.949218 0.769532,1.71875 1.71875,1.71875 m -6.824218,0 c 0.949218,0 1.71875,-0.769532 1.71875,-1.71875 0,-0.949219 -0.769532,-1.714844 -1.71875,-1.714844 -0.949219,0 -1.71875,0.765625 -1.71875,1.714844 0,0.949218 0.769531,1.71875 1.71875,1.71875 m -13.644532,0 c 0.949219,0 1.71875,-0.769532 1.71875,-1.71875 0,-0.949219 -0.769531,-1.714844 -1.71875,-1.714844 -0.949218,0 -1.71875,0.765625 -1.71875,1.714844 0,0.949218 0.769532,1.71875 1.71875,1.71875 m 6.824219,0 c 0.945313,0 1.714844,-0.769532 1.714844,-1.71875 0,-0.949219 -0.769531,-1.714844 -1.714844,-1.714844 -0.949219,0 -1.71875,0.765625 -1.71875,1.714844 0,0.949218 0.769531,1.71875 1.71875,1.71875 m 13.644531,11.636718 c 0.949219,0 1.714844,-0.769531 1.714844,-1.714843 0,-0.949219 -0.765625,-1.71875 -1.714844,-1.71875 -0.949218,0 -1.71875,0.769531 -1.71875,1.71875 0,0.945312 0.769532,1.714843 1.71875,1.714843 m -6.824218,0 c 0.949218,0 1.71875,-0.769531 1.71875,-1.714843 0,-0.949219 -0.769532,-1.71875 -1.71875,-1.71875 -0.949219,0 -1.71875,0.769531 -1.71875,1.71875 0,0.945312 0.769531,1.714843 1.71875,1.714843 m -13.644532,0 c 0.949219,0 1.71875,-0.769531 1.71875,-1.714843 0,-0.949219 -0.769531,-1.71875 -1.71875,-1.71875 -0.949218,0 -1.71875,0.769531 -1.71875,1.71875 0,0.945312 0.769532,1.714843 1.71875,1.714843 m 6.824219,0 c 0.945313,0 1.714844,-0.769531 1.714844,-1.714843 0,-0.949219 -0.769531,-1.71875 -1.714844,-1.71875 -0.949219,0 -1.71875,0.769531 -1.71875,1.71875 0,0.945312 0.769531,1.714843 1.71875,1.714843 m 44.058595,3.417969 h -1.99609 l -1.32032,-6.441406 -1.64453,6.441406 h -1.96484 l -3.09375,-11.5 h 2.59765 l 1.47657,5.855469 1.51953,-5.855469 h 1.97265 l 1.47266,5.839844 1.47656,-5.839844 h 2.61328 z m -17.78125,0 v -11.5 h 6.48437 v 2.476563 h -4.00781 v 2.011718 h 4.00781 v 2.476563 h -4.00781 v 4.535156 z m 0,0"
         id="path33" />
      <path
         inkscape:connector-curvature="0"
         style="fill:#0000ff;fill-opacity:1;fill-rule:nonzero;stroke:none"
         d="m 50.289062,28.617188 c 0.0078,0.01172 0.01172,0.02344 0.01563,0.04687 0.02344,0 0.03516,0 0.03516,0.0078 l -0.05078,-0.05078 z m -9.644531,4.308593 c 1.226563,1.226563 3.113281,1.429688 3.917969,1.445313 l 0.03906,0.03906 c 0,-0.0078 -0.0078,-0.01953 -0.01172,-0.03906 h 0.324218 c -0.0078,0.01953 -0.0078,0.03516 -0.01172,0.03906 l 0.03906,-0.03906 c 0.804688,-0.01563 2.691406,-0.21875 3.917969,-1.445313 1.484375,-1.484375 1.511719,-3.894531 1.445313,-4.261719 -0.332032,-0.03125 -2.785157,-0.04687 -4.269532,1.4375 -0.71875,0.71875 -1.09375,1.652344 -1.285156,2.464844 -0.1875,-0.8125 -0.5625,-1.746094 -1.28125,-2.464844 -1.484375,-1.484374 -3.9375,-1.46875 -4.269531,-1.4375 -0.06641,0.367188 -0.03906,2.777344 1.445312,4.261719 m -1.433593,-4.308593 -0.05078,0.05469 c 0,0 0.01563,-0.0078 0.03906,-0.0078 0,-0.02734 0.0078,-0.04297 0.01172,-0.04687 m 10.722656,10.238281 c 0.0078,0 0.01172,0.01953 0.01953,0.04297 h 0.03906 l -0.05859,-0.04688 z m -5.050782,6.355469 0.04297,0.03516 c -0.0078,0 -0.01172,-0.01563 -0.01563,-0.03516 0.05859,-0.0078 0.113282,-0.01172 0.160156,-0.01953 0.04297,-0.0078 0.09766,-0.01172 0.160157,-0.01563 0,0.01953 -0.0078,0.03516 -0.0078,0.03906 l 0.03516,-0.04297 c 0.796876,-0.105469 2.648438,-0.515625 3.730469,-1.875 1.308594,-1.640625 1.066407,-4.039063 0.960938,-4.394531 -0.332031,0.0078 -2.773438,0.265625 -4.082031,1.90625 -0.632813,0.789062 -0.898438,1.757812 -1,2.589844 -0.28125,-0.789063 -0.757813,-1.671876 -1.550782,-2.304688 -1.636718,-1.308594 -4.074218,-1.023438 -4.402344,-0.953125 -0.02344,0.371094 0.273438,2.765625 1.914063,4.074219 1.355469,1.082031 3.253906,1.074218 4.054687,1 m -6.003906,-5.066406 c 0,0 0.01563,-0.0078 0.03516,-0.0078 0,-0.02734 0.0078,-0.04297 0.0078,-0.04687 l -0.04687,0.05469 z m 12.359375,8.078124 c 0.0078,0 0.01172,0.01563 0.02344,0.04297 h 0.03516 l -0.0625,-0.04297 z m -0.835937,12.839844 c -0.457032,0.902344 -0.527344,1.90625 -0.457032,2.742188 -0.433593,-0.71875 -1.078124,-1.488282 -1.980468,-1.949219 -1.871094,-0.953125 -4.199219,-0.183594 -4.503906,-0.04687 0.04687,0.367188 0.820312,2.652344 2.6875,3.605469 1.546874,0.789062 3.40625,0.398437 4.175781,0.164062 l 0.04687,0.02344 c -0.0078,0 -0.01172,-0.01563 -0.02344,-0.03125 0.05859,-0.01563 0.109375,-0.03125 0.15625,-0.05078 0.04297,-0.01563 0.09375,-0.03125 0.152344,-0.04688 v 0.03906 l 0.02344,-0.04687 c 0.761718,-0.261719 2.492187,-1.039062 3.28125,-2.582031 0.953124,-1.871094 0.234374,-4.175781 0.05859,-4.503907 -0.328125,0.07422 -2.664062,0.820313 -3.617187,2.6875 m 3.589844,-2.730468 c 0.0078,0 0.01562,0.01563 0.03125,0.04297 h 0.03516 l -0.06641,-0.03516 z m -7.101563,-3.257813 0.04687,0.03125 c -0.0078,0 -0.01172,-0.01953 -0.01953,-0.03516 0.05859,-0.01563 0.113281,-0.02734 0.15625,-0.03516 0.04687,-0.01172 0.09766,-0.02344 0.160156,-0.03516 0,0.01953 0,0.03516 -0.0078,0.03906 L 47.253906,55 c 0.785156,-0.191406 2.582032,-0.796875 3.515625,-2.257812 1.125,-1.769532 0.628907,-4.132813 0.488281,-4.476563 -0.332031,0.04297 -2.730468,0.558594 -3.859374,2.328125 -0.542969,0.855469 -0.707032,1.847656 -0.71875,2.683594 -0.359376,-0.753906 -0.929688,-1.582032 -1.785157,-2.128906 -1.769531,-1.125 -4.164062,-0.582032 -4.480469,-0.476563 0.01563,0.367187 0.566407,2.71875 2.335938,3.847656 1.460938,0.929688 3.347656,0.71875 4.136719,0.5625 M 40.382812,50.6875 c 0,0 0.01563,-0.0078 0.03516,-0.01563 V 50.625 l -0.03906,0.0625 z m 3.042969,11.140625 c 0,0 0.01172,-0.0078 0.03516,-0.01563 0,-0.02344 -0.0078,-0.03906 0,-0.04687 z m 99.078129,-33.210937 -0.0469,0.05469 c 0,0 0.0156,-0.0078 0.0391,-0.0078 0,-0.02734 0.008,-0.04297 0.0156,-0.04687 m 1.42578,4.308593 c 1.22656,1.226563 3.10937,1.429688 3.91797,1.445313 l 0.0391,0.03906 c 0,-0.0078 -0.008,-0.01953 -0.008,-0.03906 h 0.32422 c 0,0.01953 -0.008,0.03516 -0.0156,0.03906 l 0.0391,-0.03906 c 0.80469,-0.01563 2.69141,-0.21875 3.91797,-1.445313 1.48438,-1.484375 1.51172,-3.894531 1.44532,-4.261719 -0.33204,-0.03125 -2.78516,-0.04687 -4.26954,1.4375 -0.71875,0.71875 -1.09375,1.652344 -1.28515,2.464844 -0.19141,-0.8125 -0.5625,-1.746094 -1.28125,-2.464844 -1.48438,-1.484374 -3.9375,-1.46875 -4.26953,-1.4375 -0.0664,0.367188 -0.043,2.777344 1.44531,4.261719 m 9.64453,-4.308593 c 0,0.01172 0.008,0.02344 0.0156,0.04687 0.0234,0 0.0391,0 0.0391,0.0078 l -0.0469,-0.05078 z M 142.8046,38.902364 h 0.0391 c 0.008,-0.02344 0.0156,-0.03906 0.0234,-0.04297 l -0.0547,0.04687 z m 11.0664,1.191406 c 0,0.0078 0,0.02344 0.008,0.04687 0.0234,0.0078 0.0312,0.0078 0.0391,0.01172 z m -4.39453,1 c -0.79297,0.628906 -1.26953,1.515625 -1.55078,2.304688 -0.0977,-0.832032 -0.36719,-1.800782 -1,-2.59375 -1.30859,-1.640626 -3.75,-1.898438 -4.08203,-1.90625 -0.10547,0.355468 -0.34766,2.757812 0.96094,4.398437 1.08203,1.355469 2.93359,1.769531 3.73047,1.871094 l 0.0352,0.04687 c 0,-0.01172 0,-0.02344 -0.008,-0.04297 0.0625,0.0078 0.11328,0.01563 0.16016,0.01953 0.0469,0.0078 0.0977,0.01172 0.16015,0.01953 0,0.01953 -0.0156,0.03125 -0.0156,0.03516 l 0.0391,-0.03516 c 0.80078,0.07422 2.69922,0.08594 4.05469,-0.996094 1.64062,-1.308594 1.9375,-3.707032 1.91406,-4.074219 -0.32813,-0.07031 -2.76563,-0.359375 -4.40625,0.949219 m -7.97266,7.175781 h 0.0391 c 0.008,-0.02344 0.0156,-0.03516 0.0234,-0.04297 z M 138.73437,58.375 c 0,0 0.0156,0 0.0391,0 0.0156,-0.02344 0.0234,-0.03125 0.0234,-0.03906 l -0.0625,0.03125 z M 152.375,50.671875 c 0.0234,0.0078 0.0312,0.01172 0.0391,0.01563 L 152.375,50.625 v 0.04687 m -4.48047,0.480469 c -0.85547,0.542968 -1.42187,1.371094 -1.78516,2.128906 -0.008,-0.839844 -0.17578,-1.832031 -0.71875,-2.683594 -1.1289,-1.773437 -3.52734,-2.289062 -3.85937,-2.328125 -0.14063,0.339844 -0.63672,2.703125 0.48828,4.472657 C 142.95312,54.203125 144.75,54.8125 145.53516,55 l 0.0312,0.04687 v -0.03906 c 0.0547,0.01172 0.11328,0.02344 0.15625,0.03516 0.0508,0.01172 0.0977,0.02344 0.16015,0.03516 -0.008,0.01953 -0.0156,0.03125 -0.0156,0.03516 l 0.0469,-0.03125 c 0.78906,0.160157 2.67578,0.371094 4.13672,-0.5625 1.76953,-1.125 2.32031,-3.476562 2.33594,-3.847656 -0.31641,-0.101563 -2.71094,-0.648437 -4.48047,0.480469 m -3.07813,10.707031 c -0.90234,0.460937 -1.54687,1.230469 -1.98046,1.949219 0.0703,-0.835938 0,-1.839844 -0.46094,-2.742188 -0.94922,-1.867187 -3.28906,-2.613281 -3.61328,-2.6875 -0.17578,0.328125 -0.89453,2.632813 0.0547,4.5 0.78907,1.546875 2.51954,2.324219 3.28125,2.585938 l 0.0234,0.04687 v -0.03906 c 0.0547,0.01563 0.10938,0.03906 0.15235,0.04687 0.0469,0.01563 0.0937,0.03125 0.15625,0.04687 -0.008,0.01563 -0.0156,0.03516 -0.0273,0.03516 l 0.0508,-0.02734 c 0.76953,0.234375 2.625,0.625 4.17188,-0.160157 1.87109,-0.957031 2.64062,-3.242187 2.6914,-3.609374 -0.30468,-0.132813 -2.63671,-0.902344 -4.5039,0.04687 m 4.51172,-0.03906 c 0.0234,0.0078 0.0312,0.01563 0.0312,0.01563 l -0.0312,-0.0625 v 0.04687"
         id="path35" />
      <path
         inkscape:connector-curvature="0"
         style="fill:#0000ff;fill-opacity:1;fill-rule:nonzero;stroke:none"
         d="M 97.277344,8.148438 V 3.503906 C 101.16797,3.453125 113.48828,4.382812 120.34375,8.148438 Z M 127.4375,8.074219 C 116.29297,0.144531 96.320312,-0.0351562 95.433594,0.00390625 L 93.742188,0.078125 v 8.070313 h -34.4375 v 3.535156 H 131.64844 C 129.95312,9.726562 127.4375,8.074219 127.4375,8.074219"
         id="path37" />
      <path
         inkscape:connector-curvature="0"
         style="fill:#0000ff;fill-opacity:1;fill-rule:nonzero;stroke:none"
         d="m 0,121.64063 v -20.35938 h 11.480469 v 4.38672 h -7.09375 v 3.5625 h 7.09375 v 4.38281 h -7.09375 v 8.02735 z m 0,0"
         id="path39" />
      <path
         inkscape:connector-curvature="0"
         style="fill:#0000ff;fill-opacity:1;fill-rule:nonzero;stroke:none"
         d="m 26.808594,101.07031 c 2.816406,0 5.242187,1.00782 7.269531,3.03125 2.027344,2.02735 3.042969,4.48047 3.042969,7.35938 0,2.8789 -1.015625,5.33594 -3.042969,7.36328 -2.027344,2.01953 -4.484375,3.03125 -7.363281,3.03125 -2.878906,0 -5.332032,-1.01172 -7.359375,-3.03125 -2.023438,-2.02734 -3.03125,-4.48438 -3.03125,-7.36328 0,-2.8711 1.007812,-5.32422 3.03125,-7.35938 2.007812,-2.02343 4.496093,-3.03125 7.453125,-3.03125 z m -0.132813,4.38672 c -1.621093,0 -3.019531,0.58203 -4.199219,1.75391 -1.179687,1.17578 -1.765624,2.58984 -1.765624,4.23828 0,1.63672 0.585937,3.04687 1.765624,4.22656 1.1875,1.17578 2.605469,1.76563 4.253907,1.76563 1.644531,0 3.054687,-0.58594 4.222656,-1.75391 1.171875,-1.16797 1.757813,-2.57812 1.757813,-4.22656 0,-1.66406 -0.589844,-3.08594 -1.769532,-4.26563 -1.140625,-1.16015 -2.566406,-1.73828 -4.265625,-1.73828 z m 0,0"
         id="path41" />
      <path
         inkscape:connector-curvature="0"
         style="fill:#0000ff;fill-opacity:1;fill-rule:nonzero;stroke:none"
         d="m 52.632812,101.07031 c 2.820313,0 5.242188,1.00782 7.269532,3.03125 2.03125,2.02735 3.042968,4.48047 3.042968,7.35938 0,2.8789 -1.011718,5.33594 -3.042968,7.36328 -2.027344,2.01953 -4.480469,3.03125 -7.363282,3.03125 -2.878906,0 -5.332031,-1.01172 -7.359374,-3.03125 -2.019532,-2.02734 -3.03125,-4.48438 -3.03125,-7.36328 0,-2.8711 1.011718,-5.32422 3.03125,-7.35938 2.011718,-2.02343 4.496093,-3.03125 7.453124,-3.03125 z M 52.5,105.45703 c -1.621094,0 -3.019531,0.58203 -4.199219,1.75391 -1.175781,1.17578 -1.765625,2.58984 -1.765625,4.23828 0,1.63672 0.589844,3.04687 1.765625,4.22656 1.1875,1.17578 2.605469,1.76563 4.253907,1.76563 1.648437,0 3.054687,-0.58594 4.226562,-1.75391 1.167969,-1.16797 1.753906,-2.57812 1.753906,-4.22656 0,-1.66406 -0.589844,-3.08594 -1.769531,-4.26563 C 55.625,106.03516 54.203125,105.45703 52.5,105.45703 Z m 0,0"
         id="path43" />
      <path
         inkscape:connector-curvature="0"
         style="fill:#0000ff;fill-opacity:1;fill-rule:nonzero;stroke:none"
         d="m 68.636719,121.64063 v -20.35938 h 6.777343 c 2.824219,0 5.238282,1.00391 7.242188,3.00391 1.992188,1.99218 2.988281,4.38672 2.988281,7.17578 0,2.79297 -0.996093,5.18359 -2.988281,7.17578 -2.003906,2.00391 -4.417969,3.00391 -7.242188,3.00391 z m 4.382812,-4.38282 h 2.394531 c 1.71875,0 3.125,-0.54687 4.222657,-1.63672 1.082031,-1.08203 1.621093,-2.47265 1.621093,-4.17187 0,-1.73828 -0.535156,-3.14063 -1.605468,-4.21484 -1.054688,-1.04297 -2.410156,-1.56641 -4.066406,-1.56641 h -2.566407 z m 0,0"
         id="path45" />
      <path
         inkscape:connector-curvature="0"
         style="fill:#0000ff;fill-opacity:1;fill-rule:nonzero;stroke:none"
         d="M 107.16016,121.64063 H 103.625 l -2.33984,-11.40235 -2.91016,11.40235 h -3.480469 l -5.476562,-20.35938 h 4.597656 l 2.621094,10.36719 2.683593,-10.36719 h 3.496098 l 2.60156,10.33984 2.62109,-10.33984 h 4.6211 z m 0,0"
         id="path47" />
      <path
         inkscape:connector-curvature="0"
         style="fill:#0000ff;fill-opacity:1;fill-rule:nonzero;stroke:none"
         d="m 126.97266,101.07031 c 2.82031,0 5.24218,1.00782 7.26953,3.03125 2.03125,2.02735 3.04297,4.48047 3.04297,7.35938 0,2.8789 -1.01172,5.33594 -3.04297,7.36328 -2.02735,2.01953 -4.48047,3.03125 -7.35938,3.03125 -2.88281,0 -5.33593,-1.01172 -7.36328,-3.03125 -2.01953,-2.02734 -3.03125,-4.48438 -3.03125,-7.36328 0,-2.8711 1.01172,-5.32422 3.03125,-7.35938 2.01172,-2.02343 4.4961,-3.03125 7.45313,-3.03125 z m -0.13282,4.38672 c -1.62109,0 -3.01953,0.58203 -4.19921,1.75391 -1.17579,1.17578 -1.76563,2.58984 -1.76563,4.23828 0,1.63672 0.58984,3.04687 1.76563,4.22656 1.1875,1.17578 2.60546,1.76563 4.2539,1.76563 1.64844,0 3.05469,-0.58594 4.22656,-1.75391 1.16797,-1.16797 1.75391,-2.57812 1.75391,-4.22656 0,-1.66406 -0.58984,-3.08594 -1.76953,-4.26563 -1.14063,-1.16015 -2.5625,-1.73828 -4.26563,-1.73828 z m 0,0"
         id="path49" />
      <path
         inkscape:connector-curvature="0"
         style="fill:#0000ff;fill-opacity:1;fill-rule:nonzero;stroke:none"
         d="m 152.47656,121.64063 -4.57031,-7.94532 h -0.54688 v 7.94532 h -4.41015 v -20.35938 h 6.67187 c 1.76953,0 3.25391,0.60547 4.44922,1.80859 1.22266,1.22266 1.83594,2.76954 1.83594,4.63672 0,2.42969 -1.08984,4.25391 -3.26953,5.47657 l 4.85156,8.4375 z m -5.11719,-11.97266 h 2.26172 c 0.63672,0 1.12891,-0.23438 1.47266,-0.70313 0.26562,-0.36328 0.39844,-0.79687 0.39844,-1.30468 0,-0.60938 -0.1875,-1.10547 -0.57032,-1.48828 -0.33593,-0.33594 -0.76953,-0.50391 -1.30078,-0.50391 h -2.26172 z m 0,0"
         id="path51" />
      <path
         inkscape:connector-curvature="0"
         style="fill:#0000ff;fill-opacity:1;fill-rule:nonzero;stroke:none"
         d="m 161.96094,121.64063 v -20.35938 h 4.38672 v 7.88281 l 4.92968,-7.88281 h 5.01172 l -6.23437,10.20703 6.33984,10.15235 h -5.14062 l -4.90625,-8.73047 v 8.73047 z m 0,0"
         id="path53" />
      <g
         style="fill:#0000ff"
         clip-path="url(#clip1)"
         clip-rule="nonzero"
         id="g57">
        <path
           inkscape:connector-curvature="0"
           style="fill:#0000ff;fill-opacity:1;fill-rule:nonzero;stroke:none"
           d="m 179.52734,117.20313 3.53516,-1.52735 c 0.67187,1.20313 1.48047,1.80469 2.41797,1.80469 0.46094,0 0.84765,-0.15234 1.15625,-0.46484 0.33594,-0.32813 0.5039,-0.76172 0.5039,-1.30079 0,-0.78125 -0.30859,-1.36328 -0.92968,-1.7539 -0.25782,-0.16016 -0.78907,-0.38281 -1.59375,-0.66406 -3.32422,-1.17969 -4.98438,-3.21875 -4.98438,-6.11329 0,-1.80859 0.5586,-3.27343 1.67578,-4.39843 1.09766,-1.10938 2.51953,-1.66016 4.26563,-1.66016 1.50781,0 2.80859,0.48438 3.90625,1.46094 0.6289,0.5664 1.1289,1.32812 1.5039,2.28515 l -3.92187,1.88672 c -0.46094,-0.8164 -0.98828,-1.22265 -1.58203,-1.22265 -0.45313,0 -0.83203,0.20703 -1.14063,0.625 -0.21484,0.30078 -0.32031,0.625 -0.32031,0.96875 0,0.80859 0.75391,1.5 2.25781,2.07422 l 0.35938,0.13281 c 3.26172,1.25781 4.89062,3.36328 4.89062,6.3125 0,1.82422 -0.59375,3.33203 -1.78125,4.51953 -1.13281,1.125 -2.49609,1.6875 -4.09375,1.6875 h -0.22265 c -2.10157,0 -3.7461,-0.875 -4.9336,-2.62109 -0.41406,-0.60938 -0.73828,-1.28907 -0.96875,-2.03125 z m 0,0"
           id="path55" />
      </g>
    </g>
    <text
       id="text84"
       y="45.134251"
       x="70.982635"
       style="font-style:normal;font-weight:normal;font-size:17.6389px;line-height:1.25;font-family:sans-serif;letter-spacing:-0.529167px;fill:#8b4a05;fill-opacity:1;stroke:none;stroke-width:0.45422"
       xml:space="preserve"><tspan
         style="font-style:normal;font-variant:normal;font-weight:bold;font-stretch:normal;font-family:'Public Sans';-inkscape-font-specification:'Public Sans Bold';fill:#8b4a05;fill-opacity:1;stroke-width:0.45422"
         y="45.134251"
         x="70.982635"
         id="tspan82"
         sodipodi:role="line"><tspan
   id="tspan909"
   style="fill:#484848;fill-opacity:0.326613">+</tspan>  Sustain Care</tspan></text>
    <rect
       y="18.785416"
       x="12.7"
       height="40.745834"
       width="182.29791"
       id="rect915"
       style="fill:#484848;fill-opacity:0;stroke-width:0.264583" />
  </g>
</svg>
