<svg xmlns="http://www.w3.org/2000/svg" width="554" height="420" viewBox="0 0 519.373 393.752"><g style="-inkscape-font-specification:Nanami-Bold" font-weight="700" font-size="19.219" font-family="Nanami"><path style="-inkscape-font-specification:'Nanami Bold'" d="M290.156 185.864v-51.766h29.196v11.149h-18.044v9.056h18.044v11.152h-18.044v20.41zM370.207 185.864h-8.988l-5.948-28.99-7.4 28.99h-8.851l-13.925-51.766h11.692l6.658 26.355 6.828-26.355h8.887l6.622 26.29 6.658-26.29h11.757z"/></g><path d="M171.878 170.485a7.73 7.73 0 000-15.461 7.73 7.73 0 000 15.461M141.17 170.485a7.73 7.73 0 000-15.461 7.73 7.73 0 000 15.461M202.59 170.485a7.73 7.73 0 10-.005-15.46 7.73 7.73 0 00.005 15.46M233.298 170.485a7.727 7.727 0 007.728-7.728 7.728 7.728 0 10-15.456 0 7.727 7.727 0 007.728 7.728M171.878 118.1a7.73 7.73 0 000-15.461 7.73 7.73 0 000 15.46M141.17 118.1a7.73 7.73 0 000-15.461 7.73 7.73 0 000 15.46M202.59 118.1a7.73 7.73 0 10-.005-15.46 7.73 7.73 0 00.005 15.46M233.298 118.1a7.727 7.727 0 007.728-7.729 7.728 7.728 0 10-15.456 0 7.727 7.727 0 007.728 7.729M108.866 118.1a7.727 7.727 0 007.728-7.729 7.728 7.728 0 10-15.456 0 7.727 7.727 0 007.728 7.729M187.236 144.36a7.73 7.73 0 000-15.461 7.728 7.728 0 00-7.729 7.733 7.727 7.727 0 007.729 7.729M155.728 144.36a7.73 7.73 0 000-15.461 7.73 7.73 0 000 15.462M218.743 144.36a7.727 7.727 0 007.729-7.728 7.728 7.728 0 10-15.457 0 7.727 7.727 0 007.728 7.729M124.22 144.36a7.73 7.73 0 000-15.461 7.73 7.73 0 000 15.462M171.878 222.745a7.73 7.73 0 000-15.461 7.73 7.73 0 000 15.46M141.17 222.745a7.73 7.73 0 000-15.461 7.73 7.73 0 000 15.46M202.59 207.283a7.732 7.732 0 100 15.46 7.73 7.73 0 000-15.461M233.298 207.283a7.728 7.728 0 00-7.728 7.732 7.727 7.727 0 007.728 7.729 7.727 7.727 0 007.728-7.729 7.728 7.728 0 00-7.728-7.732M194.963 188.886a7.73 7.73 0 10-15.46.005 7.73 7.73 0 0015.46-.005M155.728 181.155a7.73 7.73 0 000 15.461 7.73 7.73 0 000-15.461M218.743 196.617a7.728 7.728 0 007.729-7.733 7.727 7.727 0 00-7.729-7.729 7.727 7.727 0 00-7.728 7.729 7.728 7.728 0 007.728 7.733M124.22 196.617a7.73 7.73 0 000-15.462 7.73 7.73 0 000 15.461M171.878 274.997a7.73 7.73 0 000-15.461 7.73 7.73 0 000 15.461M141.17 274.997a7.73 7.73 0 000-15.461 7.73 7.73 0 000 15.461M202.59 259.535a7.73 7.73 0 10-.004 15.462 7.73 7.73 0 00.004-15.462M233.298 259.535a7.727 7.727 0 00-7.728 7.728 7.728 7.728 0 1015.456 0 7.727 7.727 0 00-7.728-7.728M187.236 248.87a7.73 7.73 0 000-15.461 7.728 7.728 0 00-7.729 7.732 7.727 7.727 0 007.729 7.728M155.728 233.41a7.73 7.73 0 000 15.461 7.73 7.73 0 000-15.46M218.743 248.87a7.727 7.727 0 007.729-7.73 7.728 7.728 0 10-15.457 0 7.727 7.727 0 007.728 7.73M124.22 248.87a7.73 7.73 0 000-15.461 7.73 7.73 0 000 15.46M171.878 327.25a7.73 7.73 0 000-15.461 7.73 7.73 0 000 15.46M202.59 311.79a7.73 7.73 0 10-.004 15.463 7.73 7.73 0 00.004-15.462M233.298 311.79a7.727 7.727 0 00-7.728 7.73 7.728 7.728 0 1015.456 0 7.727 7.727 0 00-7.728-7.73M187.236 285.666a7.728 7.728 0 00-7.729 7.733 7.727 7.727 0 007.729 7.729 7.73 7.73 0 000-15.461M155.728 285.666a7.73 7.73 0 000 15.462 7.73 7.73 0 000-15.461M218.743 301.125a7.727 7.727 0 007.729-7.728 7.728 7.728 0 10-15.457 0 7.727 7.727 0 007.728 7.728M218.743 353.381a7.728 7.728 0 007.729-7.733 7.727 7.727 0 00-7.729-7.728 7.727 7.727 0 00-7.728 7.728 7.728 7.728 0 007.728 7.733"/><path d="M109.532 170.428c3.975-.32 7.116-3.61 7.116-7.67 0-4.056-3.141-7.346-7.116-7.666v-63.34h139.345v282.076c-11.532-3.26-31.89-10.276-53.567-23.537.99-1.296 1.611-2.885 1.611-4.64a7.73 7.73 0 00-7.728-7.733c-2.863 0-5.285 1.602-6.621 3.911-32.003-23.081-63.583-60.598-71.24-120.364 2.125-1.377 3.561-3.73 3.561-6.45 0-3.263-2.021-6.036-4.88-7.174a230.394 230.394 0 01-.48-14.52zm294.606-78.675V193.32c0 13.278-1.157 25.557-3.16 37.026H264.793V91.753zM385.976 258.36c0-5.118.887-8.944 2.084-12.022 0-.045 0-.045.045-.072h9.44c-2.418 9.087-5.411 17.58-8.895 25.49-1.481-3.305-2.665-7.49-2.665-13.396m-8.772 34.897c-6.964 11.05-14.868 20.696-23.253 29.109a36.333 36.333 0 01-.662-7.036c0-9.434 3.012-14.489 5.438-18.544 1.913-3.205 3.07-5.14 3.07-9.952 0-4.807-1.157-6.743-3.07-9.943-2.422-4.055-5.438-9.106-5.438-18.531 0-5.019.851-8.795 2.012-11.842.045-.095.081-.162.117-.252h16.56c-1.215 3.092-2.12 6.931-2.12 12.094 0 9.425 3.016 14.476 5.437 18.531 1.913 3.2 3.07 5.136 3.07 9.943 0 2.876-.419 4.717-1.161 6.423m-34.596 3.529c-2.426 4.055-5.437 9.11-5.437 18.544 0 8.913 2.682 13.904 5.023 17.852a192.727 192.727 0 01-11.338 8.826c-.243.176-.513.311-.725.527-.369.266-.738.5-1.107.76-.09-4.406-1.215-6.337-3.056-9.416-2.422-4.055-5.433-9.114-5.433-18.549 0-9.434 3.011-14.489 5.437-18.544 1.913-3.205 3.07-5.14 3.07-9.952 0-4.807-1.157-6.743-3.07-9.943-2.421-4.055-5.437-9.106-5.437-18.531 0-5.163.904-9.002 2.12-12.094h16.631c-.004 0 0 0 0 0-1.206 3.087-2.102 6.927-2.102 12.071 0 9.426 3.016 14.476 5.438 18.532 1.913 3.2 3.07 5.135 3.07 9.942 0 4.812-1.157 6.748-3.07 9.952m-32.76 37.094c1.918 3.21 3.075 5.145 3.075 9.97 0 4.816-1.157 6.756-3.07 9.96-.387.653-.792 1.347-1.197 2.062a222.332 222.332 0 01-19.863 9.507c1.012-5.195 3.038-8.651 4.78-11.568 1.917-3.205 3.07-5.145 3.07-9.961 0-4.825-1.153-6.76-3.07-9.97-2.422-4.056-5.438-9.115-5.438-18.55 0-9.433 3.016-14.488 5.438-18.544 1.917-3.204 3.07-5.14 3.07-9.952 0-4.807-1.153-6.742-3.066-9.942-2.426-4.056-5.442-9.106-5.442-18.532 0-5.162.905-9.002 2.12-12.094h16.276c-1.215 3.088-2.115 6.936-2.115 12.094 0 9.426 3.016 14.476 5.437 18.532 1.913 3.2 3.07 5.135 3.07 9.942 0 4.812-1.157 6.748-3.07 9.952-2.426 4.056-5.437 9.11-5.437 18.545 0 9.434 3.011 14.493 5.433 18.549m-32.395 0c1.918 3.21 3.07 5.145 3.07 9.97 0 4.816-1.152 6.756-3.07 9.96-2.354 3.948-5.248 8.868-5.406 17.812a190.3 190.3 0 01-7.255 2.205V246.244h9.353c-1.22 3.092-2.13 6.927-2.13 12.094 0 9.426 3.017 14.476 5.443 18.532 1.913 3.2 3.065 5.135 3.065 9.942 0 4.812-1.152 6.748-3.07 9.952-2.421 4.056-5.437 9.11-5.437 18.545 0 9.434 3.016 14.493 5.437 18.549M92.667 193.32c0 165.839 160.927 199.129 162.552 199.444l1.616.32 1.616-.32c1.625-.315 162.553-33.605 162.553-199.444V74.887H92.667zM497.963 278.882c.094.04.148.068.153.081l-.149-.297c.014.027.01.104-.004.216M477.683 279.102c-4.07 2.07-6.968 5.545-8.922 8.768.32-3.754.014-8.268-2.061-12.337-4.29-8.413-14.818-11.766-16.28-12.09-.788 1.472-4.025 11.842.26 20.255 3.547 6.958 11.343 10.447 14.769 11.63l.117.226c-.014-.023-.014-.095 0-.185.26.09.49.167.688.225.198.072.428.144.693.225a.487.487 0 01-.108.149l.225-.113c3.466 1.053 11.825 2.813 18.784-.734 8.412-4.29 11.887-14.583 12.112-16.235-1.373-.599-11.865-4.073-20.277.216M491.481 230.904c-3.848 2.453-6.405 6.185-8.039 9.583-.045-3.767-.783-8.232-3.236-12.08-5.073-7.968-15.871-10.3-17.36-10.48-.645 1.54-2.877 12.172 2.2 20.139 4.195 6.585 12.288 9.312 15.813 10.163l.135.212a.52.52 0 01-.018-.185c.265.063.504.117.706.158.207.05.441.103.711.157a.512.512 0 01-.09.162l.212-.135c3.556.716 12.04 1.666 18.626-2.53 7.966-5.072 10.438-15.654 10.505-17.32-1.427-.468-12.198-2.916-20.165 2.156M511.653 228.747a.731.731 0 01.162.063l-.18-.279c.018.027.023.104.018.216M450.247 263.417a.666.666 0 01.172.027c.054-.104.099-.162.126-.176z"/><path d="M462.674 217.92a.625.625 0 01.171.009c.045-.104.081-.172.108-.19zM498.596 185.627c-3.569 2.845-5.711 6.832-6.976 10.38-.441-3.741-1.652-8.103-4.497-11.667-5.892-7.382-16.879-8.553-18.378-8.58-.477 1.603-1.566 12.41 4.326 19.792 4.87 6.103 13.206 7.958 16.802 8.43l.153.194a.561.561 0 01-.036-.18c.275.036.518.063.725.08.212.032.45.06.72.082a.542.542 0 01-.072.17l.194-.157c3.614.333 12.148.378 18.256-4.492 7.378-5.892 8.714-16.672 8.606-18.337-1.467-.31-12.44-1.607-19.823 4.285"/><path d="M518.376 181.133c.018.022.032.099.04.211a.805.805 0 01.167.045zM468.569 175.775c.009-.01.072-.01.17-.01.037-.107.064-.18.09-.197zM517.08 129.486c.022.022.045.094.063.207a.571.571 0 01.17.027z"/><path d="M473.664 148.876c5.523 5.523 14.012 6.432 17.64 6.5l.175.18a.531.531 0 01-.054-.176c.275 0 .513.005.725 0 .212.005.45 0 .73 0a.503.503 0 01-.06.176l.18-.18c3.624-.068 12.113-.977 17.636-6.5 6.68-6.68 6.801-17.54 6.509-19.183-1.495-.144-12.54-.207-19.22 6.468-3.227 3.227-4.915 7.426-5.775 11.1-.86-3.674-2.543-7.873-5.77-11.1-6.68-6.675-17.73-6.612-19.225-6.468-.292 1.642-.17 12.504 6.509 19.183M467.218 129.486l-.234.234a.571.571 0 01.171-.027c.018-.113.04-.185.063-.207M21.253 278.962a.587.587 0 01.153-.081c-.013-.113-.018-.19-.004-.216zM7.559 228.812a.731.731 0 01.162-.063c-.005-.117 0-.189.018-.216z"/><path d="M36.852 248.599l.212.135c-.023-.013-.054-.076-.095-.157.27-.059.509-.109.711-.158.207-.045.441-.095.711-.158 0 .09-.004.158-.018.18l.135-.211c3.525-.85 11.618-3.578 15.813-10.164 5.073-7.967 2.844-18.598 2.2-20.137-1.489.184-12.292 2.511-17.364 10.478-2.454 3.849-3.192 8.314-3.232 12.081-1.634-3.394-4.19-7.13-8.04-9.583-7.966-5.073-18.737-2.62-20.169-2.156.072 1.666 2.544 12.248 10.51 17.32 6.586 4.195 15.07 3.246 18.626 2.53M68.824 263.269c.027.014.072.077.126.176a.642.642 0 01.171-.027z"/><path d="M52.667 275.534c-2.07 4.064-2.381 8.579-2.061 12.337-1.954-3.227-4.857-6.698-8.922-8.768-8.412-4.29-18.904-.82-20.277-.22.225 1.656 3.7 11.945 12.112 16.235 6.96 3.547 15.318 1.791 18.788.734l.22.117a.531.531 0 01-.107-.153c.265-.077.495-.153.693-.221.198-.063.427-.135.688-.225a.51.51 0 01.005.184l.112-.225c3.426-1.188 11.222-4.672 14.769-11.63 4.29-8.417 1.048-18.783.26-20.26-1.467.329-11.99 3.682-16.28 12.095M56.416 217.74c.027.017.063.08.108.189.099-.014.162-.018.17-.01zM.786 181.389a.573.573 0 01.166-.045c.01-.117.023-.19.04-.212z"/><path d="M27.81 204.171l.198.158c-.022-.018-.05-.081-.076-.171.27-.023.513-.05.72-.077l.725-.08a.503.503 0 01-.036.18l.157-.199c3.592-.472 11.928-2.322 16.803-8.43 5.887-7.382 4.798-18.19 4.325-19.792-1.503.027-12.49 1.198-18.378 8.58-2.849 3.564-4.055 7.926-4.5 11.67-1.266-3.55-3.408-7.534-6.977-10.383-7.382-5.892-18.351-4.596-19.823-4.285-.108 1.665 1.228 12.445 8.61 18.337 6.104 4.87 14.642 4.83 18.252 4.492M50.543 175.562c.022.018.054.09.085.198.104 0 .162 0 .176.01zM2.29 129.486l-.233.234a.571.571 0 01.17-.027c.019-.113.041-.185.064-.207M8.736 148.876c5.523 5.523 14.012 6.432 17.64 6.5l.176.18a.531.531 0 01-.054-.176c.274 0 .513.005.724 0 .212.005.45 0 .73 0a.625.625 0 01-.059.176l.18-.18c3.623-.068 12.113-.977 17.635-6.5 6.68-6.68 6.802-17.54 6.509-19.183-1.494-.144-12.545-.207-19.22 6.468-3.227 3.227-4.915 7.426-5.775 11.1-.86-3.674-2.547-7.873-5.775-11.1-6.675-6.675-17.725-6.612-19.22-6.468-.292 1.642-.17 12.504 6.51 19.183"/><path d="M52.152 129.486c.023.022.045.094.063.207a.571.571 0 01.171.027zM263.657 37.339V16.431c17.496-.211 72.958 3.957 103.813 20.908zm135.749-.333C349.24 1.326 259.345.51 255.344.682l-7.603.342V37.34H92.723v15.92h325.632c-7.624-8.804-18.95-16.253-18.95-16.253"/></svg>