<?xml version="1.0" encoding="UTF-8" standalone="no"?>
<svg
   xmlns:dc="http://purl.org/dc/elements/1.1/"
   xmlns:cc="http://creativecommons.org/ns#"
   xmlns:rdf="http://www.w3.org/1999/02/22-rdf-syntax-ns#"
   xmlns:svg="http://www.w3.org/2000/svg"
   xmlns="http://www.w3.org/2000/svg"
   xmlns:sodipodi="http://sodipodi.sourceforge.net/DTD/sodipodi-0.dtd"
   xmlns:inkscape="http://www.inkscape.org/namespaces/inkscape"
   inkscape:export-ydpi="200.1039"
   inkscape:export-xdpi="200.1039"
   inkscape:export-filename="/Users/mjf/Desktop/fw+tys.png"
   sodipodi:docname="logo.fwtext.white.svg"
   inkscape:version="1.0rc1 (09960d6, 2020-04-09)"
   id="svg8"
   version="1.1"
   viewBox="0 0 59.002078 40.745834"
   height="40.745834mm"
   width="59.002079mm">
  <defs
     id="defs2">
    <clipPath
       id="clip1">
      <path
         inkscape:connector-curvature="0"
         d="m 179,101 h 12.52734 v 21 H 179 Z m 0,0"
         id="path28" />
    </clipPath>
  </defs>
  <sodipodi:namedview
     showguides="false"
     inkscape:window-maximized="0"
     inkscape:window-y="23"
     inkscape:window-x="0"
     inkscape:window-height="855"
     inkscape:window-width="1440"
     fit-margin-bottom="0"
     fit-margin-right="0"
     fit-margin-left="0"
     fit-margin-top="0"
     showgrid="false"
     inkscape:document-rotation="0"
     inkscape:current-layer="layer1"
     inkscape:document-units="mm"
     inkscape:cy="77.000002"
     inkscape:cx="111.49999"
     inkscape:zoom="4.0358747"
     inkscape:pageshadow="2"
     inkscape:pageopacity="0.0"
     borderopacity="1.0"
     bordercolor="#666666"
     pagecolor="#ffffff"
     id="base" />
  <metadata
     id="metadata5">
    <rdf:RDF>
      <cc:Work
         rdf:about="">
        <dc:format>image/svg+xml</dc:format>
        <dc:type
           rdf:resource="http://purl.org/dc/dcmitype/StillImage" />
        <dc:title></dc:title>
      </cc:Work>
    </rdf:RDF>
  </metadata>
  <g
     transform="translate(-12.7,-18.785416)"
     id="layer1"
     inkscape:groupmode="layer"
     inkscape:label="Layer 1">
    <g
       style="fill:#ffffff"
       transform="translate(0.13228942,1.4588821)"
       id="g1036">
      <g
         style="fill:#ffffff"
         id="g1007"
         transform="translate(-0.1517391)">
        <path
           id="path33"
           d="m 34.231213,32.139896 c 0.211434,-0.01684 0.377961,-0.191787 0.377961,-0.407898 0,-0.216111 -0.166527,-0.391059 -0.377961,-0.407898 v -3.370773 h 7.414203 v 15.008965 c -0.613718,-0.173076 -1.697081,-0.546359 -2.850609,-1.251761 0.05333,-0.06923 0.08607,-0.153429 0.08607,-0.246984 0,-0.227337 -0.184302,-0.41164 -0.41164,-0.41164 -0.151559,0 -0.280664,0.08514 -0.351765,0.207691 -1.702694,-1.227436 -3.38387,-3.223891 -3.790833,-6.403812 0.113201,-0.07391 0.189916,-0.198336 0.189916,-0.343345 0,-0.174012 -0.107588,-0.320893 -0.260082,-0.381703 -0.0159,-0.251662 -0.02526,-0.508002 -0.02526,-0.772761 z m 15.675074,-4.186569 v 5.40465 c 0,0.706337 -0.06081,1.360284 -0.168397,1.97026 h -7.245805 v -7.37491 z m -0.966418,8.865234 c 0,-0.272244 0.04771,-0.475257 0.111329,-0.639913 0,-0.0019 0,-0.0019 0.0019,-0.0037 h 0.502389 c -0.129104,0.483677 -0.288149,0.935546 -0.473385,1.356541 -0.07863,-0.175881 -0.141315,-0.398541 -0.141315,-0.712885 m -0.467772,1.857059 c -0.36954,0.587523 -0.790536,1.101138 -1.236793,1.549264 -0.02151,-0.109458 -0.03555,-0.232015 -0.03555,-0.375154 0,-0.501452 0.160913,-0.770889 0.290017,-0.986065 0.101977,-0.171205 0.162786,-0.274115 0.162786,-0.529519 0,-0.25634 -0.06081,-0.35925 -0.162786,-0.529519 -0.129104,-0.215176 -0.290017,-0.484613 -0.290017,-0.986066 0,-0.26663 0.04584,-0.467773 0.107588,-0.629622 0.0019,-0.0056 0.0037,-0.0084 0.0056,-0.01403 h 0.881285 c -0.06455,0.164656 -0.113202,0.36954 -0.113202,0.643655 0,0.501453 0.160915,0.77089 0.289086,0.986066 0.101974,0.170269 0.16372,0.273179 0.16372,0.529519 0,0.152494 -0.02244,0.250726 -0.06175,0.341474 m -1.841154,0.188045 c -0.129107,0.215176 -0.289084,0.484613 -0.289084,0.986065 0,0.474322 0.143137,0.740017 0.267565,0.950515 -0.199271,0.167463 -0.401349,0.323699 -0.603427,0.469644 -0.01403,0.0094 -0.02713,0.01684 -0.03836,0.02807 -0.01964,0.0131 -0.03929,0.0262 -0.05894,0.04023 -0.0056,-0.234822 -0.06455,-0.336796 -0.162786,-0.501452 -0.129104,-0.215176 -0.289083,-0.484613 -0.289083,-0.987002 0,-0.501452 0.159979,-0.770889 0.289083,-0.986065 0.101977,-0.171205 0.163722,-0.274115 0.163722,-0.529519 0,-0.25634 -0.06175,-0.35925 -0.163722,-0.529519 -0.129104,-0.215176 -0.289083,-0.484613 -0.289083,-0.986066 0,-0.274115 0.04771,-0.478999 0.112266,-0.643655 h 0.885028 c -0.06362,0.164656 -0.111332,0.368605 -0.111332,0.64272 0,0.501453 0.159979,0.769954 0.289084,0.986065 0.101974,0.17027 0.163722,0.27318 0.163722,0.528584 0,0.256339 -0.06175,0.359249 -0.163722,0.529519 m -1.742922,1.974002 c 0.101975,0.171205 0.16372,0.274115 0.16372,0.530454 0,0.25634 -0.06174,0.35925 -0.16372,0.530455 -0.02057,0.03461 -0.0421,0.0711 -0.06362,0.109459 -0.371411,0.201142 -0.727854,0.368605 -1.057166,0.506131 0.05426,-0.276922 0.161849,-0.460289 0.254468,-0.61559 0.101974,-0.171205 0.163722,-0.274115 0.163722,-0.530455 0,-0.256339 -0.06175,-0.359249 -0.163722,-0.530454 -0.128168,-0.216111 -0.289083,-0.484613 -0.289083,-0.987001 0,-0.501453 0.160915,-0.77089 0.289083,-0.987001 0.101974,-0.17027 0.163722,-0.27318 0.163722,-0.529519 0,-0.255404 -0.06175,-0.358314 -0.163722,-0.528584 -0.128168,-0.216111 -0.289083,-0.484612 -0.289083,-0.986065 0,-0.275051 0.04865,-0.479 0.113202,-0.643656 h 0.86538 c -0.06362,0.164656 -0.111332,0.369541 -0.111332,0.643656 0,0.501453 0.159979,0.769954 0.289086,0.986065 0.101974,0.17027 0.16372,0.27318 0.16372,0.528584 0,0.256339 -0.06175,0.359249 -0.16372,0.529519 -0.129107,0.216111 -0.289086,0.485548 -0.289086,0.987001 0,0.502388 0.159979,0.77089 0.289086,0.987001 m -1.724212,0 c 0.102909,0.171205 0.16372,0.274115 0.16372,0.530454 0,0.25634 -0.06081,0.35925 -0.16372,0.530455 -0.124428,0.209562 -0.278793,0.471515 -0.287213,0.947708 -0.143139,0.04678 -0.272244,0.08514 -0.386381,0.116944 V 36.17397 h 0.497711 c -0.06455,0.164656 -0.113201,0.368605 -0.113201,0.643656 0,0.501453 0.160914,0.769954 0.290018,0.986065 0.101975,0.17027 0.162786,0.27318 0.162786,0.528584 0,0.256339 -0.06081,0.359249 -0.16372,0.529519 -0.12817,0.216111 -0.289084,0.485548 -0.289084,0.987001 0,0.502388 0.160914,0.77089 0.289084,0.987001 m -9.833518,-7.477819 c 0,8.82407 8.563053,10.595058 8.650059,10.611898 l 0.08514,0.01778 0.08607,-0.01778 c 0.08701,-0.01684 8.650058,-1.787828 8.650058,-10.611898 V 27.056139 H 33.333089 Z m 6.708801,8.516275 c 0.227338,0 0.41164,-0.183367 0.41164,-0.410705 0,-0.227337 -0.184302,-0.41164 -0.41164,-0.41164 -0.227338,0 -0.41164,0.184303 -0.41164,0.41164 0,0.227338 0.184302,0.410705 0.41164,0.410705 m 0,-2.780443 c 0.227338,0 0.41164,-0.183367 0.41164,-0.410704 0,-0.227338 -0.184302,-0.411641 -0.41164,-0.411641 -0.227338,0 -0.41164,0.184303 -0.41164,0.411641 0,0.227337 0.184302,0.410704 0.41164,0.410704 m -3.352997,-0.822345 c -0.227338,0 -0.41164,0.184303 -0.41164,0.411641 0,0.227337 0.184302,0.41164 0.41164,0.41164 0.227338,0 0.41164,-0.184303 0.41164,-0.41164 0,-0.227338 -0.184302,-0.411641 -0.41164,-0.411641 m 1.676498,0 c -0.227337,0 -0.41164,0.184303 -0.41164,0.411641 0,0.227337 0.184303,0.41164 0.41164,0.41164 0.227338,0 0.411641,-0.184303 0.411641,-0.41164 0,-0.227338 -0.184303,-0.411641 -0.411641,-0.411641 m 2.451131,1.390222 c -0.227338,0 -0.41164,0.184302 -0.41164,0.41164 0,0.227338 0.184302,0.410705 0.41164,0.410705 0.227338,0 0.410705,-0.183367 0.410705,-0.410705 0,-0.227338 -0.183367,-0.41164 -0.410705,-0.41164 m -1.634399,0 c -0.227338,0 -0.41164,0.184302 -0.41164,0.41164 0,0.227338 0.184302,0.410705 0.41164,0.410705 0.227338,0 0.41164,-0.183367 0.41164,-0.410705 0,-0.227338 -0.184302,-0.41164 -0.41164,-0.41164 m -1.633463,0.822345 c 0.226402,0 0.410705,-0.184303 0.410705,-0.410705 0,-0.227338 -0.184303,-0.41164 -0.410705,-0.41164 -0.227338,0 -0.41164,0.184302 -0.41164,0.41164 0,0.226402 0.184302,0.410705 0.41164,0.410705 m -2.536266,-4.170664 c 0.227338,0 0.411641,-0.183367 0.411641,-0.410705 0,-0.227338 -0.184303,-0.41164 -0.411641,-0.41164 -0.227337,0 -0.41164,0.184302 -0.41164,0.41164 0,0.227338 0.184303,0.410705 0.41164,0.410705 m 5.029496,0 c 0.227338,0 0.41164,-0.183367 0.41164,-0.410705 0,-0.227338 -0.184302,-0.41164 -0.41164,-0.41164 -0.227338,0 -0.41164,0.184302 -0.41164,0.41164 0,0.227338 0.184302,0.410705 0.41164,0.410705 m -3.352997,-0.822345 c -0.227338,0 -0.41164,0.184302 -0.41164,0.41164 0,0.227338 0.184302,0.41164 0.41164,0.41164 0.227338,0 0.41164,-0.184302 0.41164,-0.41164 0,-0.227338 -0.184302,-0.41164 -0.41164,-0.41164 m 1.676498,0.822345 c 0.227338,0 0.411641,-0.183367 0.411641,-0.410705 0,-0.227338 -0.184303,-0.41164 -0.411641,-0.41164 -0.227337,0 -0.41164,0.184302 -0.41164,0.41164 0,0.227338 0.184303,0.410705 0.41164,0.410705 m 2.451131,0.567876 c -0.227338,0 -0.41164,0.184303 -0.41164,0.41164 0,0.227338 0.184302,0.410705 0.41164,0.410705 0.227338,0 0.410705,-0.183367 0.410705,-0.410705 0,-0.227337 -0.183367,-0.41164 -0.410705,-0.41164 m -1.634399,0 c -0.227338,0 -0.41164,0.184303 -0.41164,0.41164 0,0.227338 0.184302,0.410705 0.41164,0.410705 0.227338,0 0.41164,-0.183367 0.41164,-0.410705 0,-0.227337 -0.184302,-0.41164 -0.41164,-0.41164 m -3.267862,0.822345 c 0.227338,0 0.41164,-0.183367 0.41164,-0.410705 0,-0.227337 -0.184302,-0.41164 -0.41164,-0.41164 -0.227338,0 -0.41164,0.184303 -0.41164,0.41164 0,0.227338 0.184302,0.410705 0.41164,0.410705 m 1.634399,0 c 0.226402,0 0.410705,-0.183367 0.410705,-0.410705 0,-0.227337 -0.184303,-0.41164 -0.410705,-0.41164 -0.227338,0 -0.41164,0.184303 -0.41164,0.41164 0,0.227338 0.184302,0.410705 0.41164,0.410705 m -2.536266,-4.169729 c 0.227338,0 0.411641,-0.184302 0.411641,-0.41164 0,-0.227337 -0.184303,-0.41164 -0.411641,-0.41164 -0.227337,0 -0.41164,0.184303 -0.41164,0.41164 0,0.227338 0.184303,0.41164 0.41164,0.41164 m 5.029496,0 c 0.227338,0 0.41164,-0.184302 0.41164,-0.41164 0,-0.227337 -0.184302,-0.41164 -0.41164,-0.41164 -0.227338,0 -0.41164,0.184303 -0.41164,0.41164 0,0.227338 0.184302,0.41164 0.41164,0.41164 m -3.352997,-0.82328 c -0.227338,0 -0.41164,0.184303 -0.41164,0.41164 0,0.227338 0.184302,0.410705 0.41164,0.410705 0.227338,0 0.41164,-0.183367 0.41164,-0.410705 0,-0.227337 -0.184302,-0.41164 -0.41164,-0.41164 m 2.088139,0.41164 c 0,-0.227337 -0.184303,-0.41164 -0.411641,-0.41164 -0.227337,0 -0.41164,0.184303 -0.41164,0.41164 0,0.227338 0.184303,0.41164 0.41164,0.41164 0.227338,0 0.411641,-0.184302 0.411641,-0.41164 m 2.03949,0.978581 c -0.227338,0 -0.41164,0.184303 -0.41164,0.411641 0,0.227337 0.184302,0.41164 0.41164,0.41164 0.227338,0 0.410705,-0.184303 0.410705,-0.41164 0,-0.227338 -0.183367,-0.411641 -0.410705,-0.411641 m -1.634399,0 c -0.227338,0 -0.41164,0.184303 -0.41164,0.411641 0,0.227337 0.184302,0.41164 0.41164,0.41164 0.227338,0 0.41164,-0.184303 0.41164,-0.41164 0,-0.227338 -0.184302,-0.411641 -0.41164,-0.411641 m -3.267862,0.823281 c 0.227338,0 0.41164,-0.184303 0.41164,-0.41164 0,-0.227338 -0.184302,-0.411641 -0.41164,-0.411641 -0.227338,0 -0.41164,0.184303 -0.41164,0.411641 0,0.227337 0.184302,0.41164 0.41164,0.41164 m 1.634399,0 c 0.226402,0 0.410705,-0.184303 0.410705,-0.41164 0,-0.227338 -0.184303,-0.411641 -0.410705,-0.411641 -0.227338,0 -0.41164,0.184303 -0.41164,0.411641 0,0.227337 0.184302,0.41164 0.41164,0.41164 m -2.536266,-4.170664 c 0.227338,0 0.411641,-0.184303 0.411641,-0.411641 0,-0.227337 -0.184303,-0.41164 -0.411641,-0.41164 -0.227337,0 -0.41164,0.184303 -0.41164,0.41164 0,0.227338 0.184303,0.411641 0.41164,0.411641 m 5.029496,0 c 0.227338,0 0.41164,-0.184303 0.41164,-0.411641 0,-0.227337 -0.184302,-0.41164 -0.41164,-0.41164 -0.227338,0 -0.41164,0.184303 -0.41164,0.41164 0,0.227338 0.184302,0.411641 0.41164,0.411641 m -3.352997,0 c 0.227338,0 0.41164,-0.184303 0.41164,-0.411641 0,-0.227337 -0.184302,-0.41164 -0.41164,-0.41164 -0.227338,0 -0.41164,0.184303 -0.41164,0.41164 0,0.227338 0.184302,0.411641 0.41164,0.411641 m 1.676498,0 c 0.227338,0 0.411641,-0.184303 0.411641,-0.411641 0,-0.227337 -0.184303,-0.41164 -0.411641,-0.41164 -0.227337,0 -0.41164,0.184303 -0.41164,0.41164 0,0.227338 0.184303,0.411641 0.41164,0.411641 m -4.169728,-1.397706 c 0.227338,0 0.410705,-0.184303 0.410705,-0.41164 0,-0.227338 -0.183367,-0.410705 -0.410705,-0.410705 -0.227338,0 -0.41164,0.183367 -0.41164,0.410705 0,0.227337 0.184302,0.41164 0.41164,0.41164 m 6.620859,0 c 0.227338,0 0.410705,-0.184303 0.410705,-0.41164 0,-0.227338 -0.183367,-0.410705 -0.410705,-0.410705 -0.227338,0 -0.41164,0.183367 -0.41164,0.410705 0,0.227337 0.184302,0.41164 0.41164,0.41164 m -1.634399,0 c 0.227338,0 0.41164,-0.184303 0.41164,-0.41164 0,-0.227338 -0.184302,-0.410705 -0.41164,-0.410705 -0.227338,0 -0.41164,0.183367 -0.41164,0.410705 0,0.227337 0.184302,0.41164 0.41164,0.41164 m -3.267862,0 c 0.227338,0 0.41164,-0.184303 0.41164,-0.41164 0,-0.227338 -0.184302,-0.410705 -0.41164,-0.410705 -0.227338,0 -0.41164,0.183367 -0.41164,0.410705 0,0.227337 0.184302,0.41164 0.41164,0.41164 m 1.634399,0 c 0.226402,0 0.410705,-0.184303 0.410705,-0.41164 0,-0.227338 -0.184303,-0.410705 -0.410705,-0.410705 -0.227338,0 -0.41164,0.183367 -0.41164,0.410705 0,0.227337 0.184302,0.41164 0.41164,0.41164 m 3.267862,2.786991 c 0.227338,0 0.410705,-0.184302 0.410705,-0.410704 0,-0.227338 -0.183367,-0.41164 -0.410705,-0.41164 -0.227338,0 -0.41164,0.184302 -0.41164,0.41164 0,0.226402 0.184302,0.410704 0.41164,0.410704 m -1.634399,0 c 0.227338,0 0.41164,-0.184302 0.41164,-0.410704 0,-0.227338 -0.184302,-0.41164 -0.41164,-0.41164 -0.227338,0 -0.41164,0.184302 -0.41164,0.41164 0,0.226402 0.184302,0.410704 0.41164,0.410704 m -3.267862,0 c 0.227338,0 0.41164,-0.184302 0.41164,-0.410704 0,-0.227338 -0.184302,-0.41164 -0.41164,-0.41164 -0.227338,0 -0.41164,0.184302 -0.41164,0.41164 0,0.226402 0.184302,0.410704 0.41164,0.410704 m 1.634399,0 c 0.226402,0 0.410705,-0.184302 0.410705,-0.410704 0,-0.227338 -0.184303,-0.41164 -0.410705,-0.41164 -0.227338,0 -0.41164,0.184302 -0.41164,0.41164 0,0.226402 0.184302,0.410704 0.41164,0.410704 m 10.552024,0.818603 H 47.62262 L 47.306404,31.41859 46.91254,32.961305 h -0.470579 l -0.740953,-2.754247 h 0.622137 l 0.353638,1.402383 0.363927,-1.402383 h 0.472449 l 0.352702,1.398641 0.353636,-1.398641 h 0.62588 z m -4.258606,0 v -2.754247 h 1.553005 v 0.593136 H 44.435214 V 31.282 h 0.959869 v 0.593136 h -0.959869 v 1.086169 z m 0,0"
           style="fill:#ffffff;fill-opacity:1;fill-rule:nonzero;stroke:none;stroke-width:0.2395"
           inkscape:connector-curvature="0" />
        <path
           id="path35"
           d="m 31.177591,29.961009 c 0.0019,0.0028 0.0028,0.0056 0.0037,0.01123 0.0056,0 0.0084,0 0.0084,0.0019 l -0.01216,-0.01216 z m -2.309863,1.031907 c 0.293762,0.293762 0.74563,0.34241 0.938353,0.346152 l 0.0094,0.0094 c 0,-0.0019 -0.0019,-0.0047 -0.0028,-0.0094 h 0.07765 c -0.0019,0.0047 -0.0019,0.0084 -0.0028,0.0094 l 0.0094,-0.0094 c 0.192723,-0.0037 0.644591,-0.05239 0.938353,-0.346152 0.355507,-0.355507 0.362056,-0.932739 0.346152,-1.02068 -0.07952,-0.0075 -0.667045,-0.01123 -1.022552,0.34428 -0.172141,0.172141 -0.261953,0.395737 -0.307795,0.59033 -0.04491,-0.194593 -0.134718,-0.418189 -0.306859,-0.59033 -0.355507,-0.355507 -0.94303,-0.351765 -1.022552,-0.34428 -0.01591,0.08794 -0.0094,0.665173 0.346152,1.02068 m -0.343345,-1.031907 -0.01216,0.0131 c 0,0 0.0037,-0.0019 0.0094,-0.0019 0,-0.0065 0.0019,-0.01029 0.0028,-0.01122 m 2.568074,2.452066 c 0.0019,0 0.0028,0.0047 0.0047,0.01029 h 0.0094 l -0.01403,-0.01123 z m -1.209661,1.522133 0.01029,0.0084 c -0.0019,0 -0.0028,-0.0037 -0.0037,-0.0084 0.01403,-0.0019 0.02713,-0.0028 0.03836,-0.0047 0.01029,-0.0019 0.02339,-0.0028 0.03836,-0.0037 0,0.0047 -0.0019,0.0084 -0.0019,0.0094 l 0.0084,-0.01029 c 0.190852,-0.02526 0.634301,-0.123492 0.893447,-0.449062 0.313408,-0.392929 0.255404,-0.967355 0.230144,-1.052489 -0.07952,0.0019 -0.664238,0.06362 -0.977645,0.456546 -0.151559,0.188981 -0.215176,0.420996 -0.2395,0.620267 -0.06736,-0.18898 -0.181496,-0.400413 -0.371412,-0.551972 -0.391994,-0.313408 -0.975774,-0.245113 -1.054361,-0.228273 -0.0056,0.08888 0.06549,0.662367 0.458418,0.975775 0.324635,0.259146 0.77931,0.257274 0.971097,0.239499 m -1.437934,-1.213403 c 0,0 0.0037,-0.0019 0.0084,-0.0019 0,-0.0065 0.0019,-0.01029 0.0019,-0.01122 l -0.01123,0.0131 z m 2.960067,1.934709 c 0.0019,0 0.0028,0.0037 0.0056,0.01029 h 0.0084 l -0.01497,-0.01029 z m -0.200207,3.07514 c -0.109459,0.216111 -0.126298,0.456546 -0.109459,0.656753 -0.103845,-0.17214 -0.25821,-0.356443 -0.474321,-0.466837 -0.448127,-0.228273 -1.005712,-0.04397 -1.078685,-0.01123 0.01123,0.08794 0.196465,0.635236 0.643656,0.863509 0.370476,0.188981 0.815796,0.09543 1.000099,0.03929 l 0.01122,0.0056 c -0.0019,0 -0.0028,-0.0037 -0.0056,-0.0075 0.01403,-0.0037 0.02619,-0.0075 0.03742,-0.01216 0.01029,-0.0037 0.02245,-0.0075 0.03649,-0.01123 v 0.0094 l 0.0056,-0.01123 c 0.182431,-0.06268 0.596878,-0.248855 0.785859,-0.618396 0.228273,-0.448127 0.05613,-1.000099 0.01403,-1.078685 -0.07859,0.01778 -0.638042,0.196465 -0.866315,0.643656 m 0.859766,-0.653947 c 0.0019,0 0.0037,0.0037 0.0075,0.01029 h 0.0084 l -0.01591,-0.0084 z m -1.700822,-0.780245 0.01123,0.0075 c -0.0019,0 -0.0028,-0.0047 -0.0047,-0.0084 0.01403,-0.0037 0.02713,-0.0065 0.03742,-0.0084 0.01123,-0.0028 0.02339,-0.0056 0.03836,-0.0084 0,0.0047 0,0.0084 -0.0019,0.0094 l 0.0065,-0.01123 c 0.188045,-0.04584 0.618396,-0.190851 0.841992,-0.540746 0.269437,-0.423802 0.150623,-0.989807 0.116943,-1.072135 -0.07952,0.01029 -0.653947,0.133783 -0.92432,0.557585 -0.13004,0.204885 -0.169334,0.442513 -0.17214,0.64272 -0.08607,-0.18056 -0.22266,-0.378896 -0.427545,-0.509872 -0.423802,-0.269438 -0.997292,-0.139397 -1.073071,-0.114137 0.0037,0.08794 0.135654,0.65114 0.559457,0.921513 0.349894,0.22266 0.801762,0.17214 0.990743,0.134718 M 28.805085,35.24701 c 0,0 0.0037,-0.0019 0.0084,-0.0037 v -0.01123 l -0.0094,0.01497 z m 0.72879,2.668177 c 0,0 0.0028,-0.0019 0.0084,-0.0037 0,-0.0056 -0.0019,-0.0094 0,-0.01123 z m 23.72919,-7.954012 -0.01123,0.0131 c 0,0 0.0037,-0.0019 0.0094,-0.0019 0,-0.0065 0.0019,-0.01029 0.0037,-0.01122 m 0.341474,1.031907 c 0.293761,0.293762 0.744694,0.34241 0.938353,0.346152 l 0.0094,0.0094 c 0,-0.0019 -0.0019,-0.0047 -0.0019,-0.0094 h 0.07765 c 0,0.0047 -0.0019,0.0084 -0.0037,0.0094 l 0.0094,-0.0094 c 0.192724,-0.0037 0.644593,-0.05239 0.938353,-0.346152 0.355509,-0.355507 0.362057,-0.932739 0.346154,-1.020681 -0.07952,-0.0075 -0.667045,-0.01122 -1.022554,0.344281 -0.17214,0.172141 -0.261953,0.395736 -0.307793,0.59033 -0.04584,-0.194594 -0.134718,-0.418189 -0.306859,-0.59033 -0.355509,-0.355507 -0.94303,-0.351765 -1.022551,-0.344281 -0.0159,0.08794 -0.0103,0.665174 0.346151,1.020681 m 2.309863,-1.031907 c 0,0.0028 0.0019,0.0056 0.0037,0.01122 0.0056,0 0.0094,0 0.0094,0.0019 l -0.01123,-0.01216 z m -2.581171,2.463293 h 0.0094 c 0.0019,-0.0056 0.0037,-0.0094 0.0056,-0.01029 l -0.0131,0.01123 z m 2.650401,0.285341 c 0,0.0019 0,0.0056 0.0019,0.01122 0.0056,0.0019 0.0075,0.0019 0.0094,0.0028 z m -1.052489,0.2395 c -0.189916,0.150623 -0.304052,0.362992 -0.371412,0.551972 -0.0234,-0.199271 -0.08794,-0.431287 -0.2395,-0.621202 -0.313407,-0.39293 -0.898124,-0.454676 -0.977645,-0.456547 -0.02526,0.08513 -0.08326,0.660496 0.230145,1.053425 0.259146,0.324634 0.702594,0.423802 0.893447,0.448126 l 0.0084,0.01123 c 0,-0.0028 0,-0.0056 -0.0019,-0.01029 0.01497,0.0019 0.02713,0.0037 0.03836,0.0047 0.01123,0.0019 0.0234,0.0028 0.03836,0.0047 0,0.0047 -0.0037,0.0075 -0.0037,0.0084 l 0.0094,-0.0084 c 0.191786,0.01778 0.646462,0.02058 0.971097,-0.238564 0.392928,-0.313408 0.464031,-0.887833 0.458417,-0.975775 -0.07859,-0.01684 -0.662368,-0.08607 -1.055296,0.227338 M 53.02184,34.667 h 0.0094 c 0.0019,-0.0056 0.0037,-0.0084 0.0056,-0.01029 z m -0.661391,2.421191 c 0,0 0.0037,0 0.0094,0 0.0037,-0.0056 0.0056,-0.0075 0.0056,-0.0094 l -0.01497,0.0075 z m 3.266928,-1.844897 c 0.0056,0.0019 0.0075,0.0028 0.0094,0.0037 l -0.0094,-0.01497 v 0.01123 m -1.073072,0.115072 c -0.204884,0.130041 -0.340537,0.328377 -0.427545,0.509872 -0.0019,-0.201142 -0.0421,-0.438771 -0.17214,-0.64272 -0.270372,-0.424737 -0.844798,-0.54823 -0.924319,-0.557585 -0.03368,0.08139 -0.152494,0.647398 0.116943,1.0712 0.223595,0.349896 0.653947,0.495841 0.841993,0.540747 l 0.0075,0.01122 v -0.0094 c 0.0131,0.0028 0.02713,0.0056 0.03742,0.0084 0.01217,0.0028 0.0234,0.0056 0.03836,0.0084 -0.0019,0.0047 -0.0037,0.0075 -0.0037,0.0084 l 0.01123,-0.0075 c 0.18898,0.03836 0.640849,0.08888 0.990744,-0.134718 0.423802,-0.269437 0.555714,-0.832636 0.559457,-0.921513 -0.07578,-0.02432 -0.64927,-0.1553 -1.073072,0.115072 m -0.737211,2.564332 c -0.21611,0.110394 -0.370475,0.294697 -0.47432,0.466837 0.01684,-0.200207 0,-0.440642 -0.110395,-0.656753 -0.227338,-0.447191 -0.787729,-0.62588 -0.86538,-0.643656 -0.0421,0.07859 -0.214239,0.630558 0.0131,1.077749 0.188982,0.370477 0.603429,0.55665 0.785859,0.619332 l 0.0056,0.01122 v -0.0094 c 0.0131,0.0037 0.0262,0.0094 0.03649,0.01123 0.01123,0.0037 0.02244,0.0075 0.03742,0.01123 -0.0019,0.0037 -0.0037,0.0084 -0.0065,0.0084 l 0.01217,-0.0065 c 0.184302,0.05613 0.628687,0.149687 0.999164,-0.03836 0.448126,-0.229208 0.632428,-0.776503 0.64459,-0.864444 -0.07297,-0.03181 -0.631492,-0.216111 -1.078683,0.01123 m 1.080556,-0.0094 c 0.0056,0.0019 0.0075,0.0037 0.0075,0.0037 l -0.0075,-0.01497 v 0.01123"
           style="fill:#ffffff;fill-opacity:1;fill-rule:nonzero;stroke:none;stroke-width:0.2395"
           inkscape:connector-curvature="0" />
        <path
           id="path37"
           d="m 42.431274,25.058748 v -1.112364 c 0.931805,-0.01216 3.882516,0.210498 5.5244,1.112364 z m 7.223351,-0.01778 C 46.985513,23.141809 42.202066,23.098774 41.989697,23.10813 l -0.405092,0.01778 v 1.932838 h -8.247773 v 0.846669 h 17.326312 c -0.406028,-0.468709 -1.008519,-0.864444 -1.008519,-0.864444"
           style="fill:#ffffff;fill-opacity:1;fill-rule:nonzero;stroke:none;stroke-width:0.2395"
           inkscape:connector-curvature="0" />
      </g>
      <g
         style="fill:#ffffff"
         id="g1019">
        <path
           id="path39"
           d="m 19.133372,52.240103 v -4.876067 h 2.74957 v 1.050619 H 20.18399 v 0.853218 h 1.698952 v 1.049682 H 20.18399 v 1.922548 z m 0,0"
           style="fill:#ffffff;fill-opacity:1;fill-rule:nonzero;stroke:none;stroke-width:0.2395"
           inkscape:connector-curvature="0" />
        <path
           id="path41"
           d="m 25.554024,47.313516 c 0.674529,0 1.255503,0.241373 1.741051,0.725984 0.485549,0.48555 0.728791,1.073071 0.728791,1.76257 0,0.689496 -0.243242,1.277956 -0.728791,1.763504 -0.485548,0.483677 -1.074006,0.725983 -1.763504,0.725983 -0.689497,0 -1.27702,-0.242306 -1.762568,-0.725983 -0.484613,-0.485548 -0.725984,-1.074008 -0.725984,-1.763504 0,-0.687628 0.241371,-1.27515 0.725984,-1.76257 0.48087,-0.484611 1.076813,-0.725984 1.785021,-0.725984 z m -0.03181,1.050618 c -0.388252,0 -0.723177,0.139397 -1.005712,0.420062 -0.282535,0.281599 -0.422867,0.620266 -0.422867,1.015067 0,0.391994 0.140332,0.729724 0.422867,1.01226 0.284406,0.281599 0.624009,0.422868 1.018809,0.422868 0.393865,0 0.731597,-0.140333 1.011326,-0.420061 0.280663,-0.279729 0.420995,-0.617459 0.420995,-1.01226 0,-0.398542 -0.141267,-0.739082 -0.423802,-1.021618 -0.27318,-0.277856 -0.614654,-0.416318 -1.021616,-0.416318 z m 0,0"
           style="fill:#ffffff;fill-opacity:1;fill-rule:nonzero;stroke:none;stroke-width:0.2395"
           inkscape:connector-curvature="0" />
        <path
           id="path43"
           d="m 31.738919,47.313516 c 0.675464,0 1.255503,0.241373 1.741051,0.725984 0.486484,0.48555 0.72879,1.073071 0.72879,1.76257 0,0.689496 -0.242306,1.277956 -0.72879,1.763504 -0.485548,0.483677 -1.073071,0.725983 -1.763504,0.725983 -0.689498,0 -1.27702,-0.242306 -1.762569,-0.725983 -0.483677,-0.485548 -0.725983,-1.074008 -0.725983,-1.763504 0,-0.687628 0.242306,-1.27515 0.725983,-1.76257 0.481806,-0.484611 1.076814,-0.725984 1.785022,-0.725984 z m -0.03181,1.050618 c -0.388251,0 -0.723177,0.139397 -1.005712,0.420062 -0.281599,0.281599 -0.422866,0.620266 -0.422866,1.015067 0,0.391994 0.141267,0.729724 0.422866,1.01226 0.284406,0.281599 0.62401,0.422868 1.01881,0.422868 0.394801,0 0.731597,-0.140333 1.012261,-0.420061 0.279728,-0.279729 0.42006,-0.617459 0.42006,-1.01226 0,-0.398542 -0.141268,-0.739082 -0.423802,-1.021618 -0.27318,-0.277856 -0.613718,-0.416318 -1.021617,-0.416318 z m 0,0"
           style="fill:#ffffff;fill-opacity:1;fill-rule:nonzero;stroke:none;stroke-width:0.2395"
           inkscape:connector-curvature="0" />
        <path
           id="path45"
           d="m 35.571851,52.240103 v -4.876067 h 1.623172 c 0.6764,0 1.254568,0.240436 1.734503,0.719436 0.477128,0.477127 0.715692,1.050618 0.715692,1.718598 0,0.668915 -0.238564,1.241468 -0.715692,1.718597 -0.479935,0.479936 -1.058103,0.719436 -1.734503,0.719436 z m 1.049683,-1.049684 h 0.573489 c 0.411641,0 0.748437,-0.130976 1.011326,-0.391994 0.259146,-0.259146 0.388251,-0.5922 0.388251,-0.999162 0,-0.416318 -0.12817,-0.752181 -0.384509,-1.009454 -0.252598,-0.249791 -0.577232,-0.375154 -0.973903,-0.375154 h -0.614654 z m 0,0"
           style="fill:#ffffff;fill-opacity:1;fill-rule:nonzero;stroke:none;stroke-width:0.2395"
           inkscape:connector-curvature="0" />
        <path
           id="path47"
           d="m 44.798207,52.240103 h -0.84667 l -0.560391,-2.73086 -0.696983,2.73086 h -0.833572 l -1.311635,-4.876067 h 1.101138 l 0.627751,2.48294 0.64272,-2.48294 h 0.837315 l 0.623073,2.476389 0.62775,-2.476389 h 1.106753 z m 0,0"
           style="fill:#ffffff;fill-opacity:1;fill-rule:nonzero;stroke:none;stroke-width:0.2395"
           inkscape:connector-curvature="0" />
        <path
           id="path49"
           d="m 49.543296,47.313516 c 0.675464,0 1.255501,0.241373 1.741051,0.725984 0.486484,0.48555 0.728791,1.073071 0.728791,1.76257 0,0.689496 -0.242307,1.277956 -0.728791,1.763504 -0.48555,0.483677 -1.073072,0.725983 -1.76257,0.725983 -0.690432,0 -1.277954,-0.242306 -1.763504,-0.725983 -0.483677,-0.485548 -0.725984,-1.074008 -0.725984,-1.763504 0,-0.687628 0.242307,-1.27515 0.725984,-1.76257 0.481807,-0.484611 1.076815,-0.725984 1.785023,-0.725984 z m -0.03181,1.050618 c -0.388251,0 -0.723177,0.139397 -1.00571,0.420062 -0.281602,0.281599 -0.422868,0.620266 -0.422868,1.015067 0,0.391994 0.141266,0.729724 0.422868,1.01226 0.284406,0.281599 0.624007,0.422868 1.018808,0.422868 0.394801,0 0.731598,-0.140333 1.01226,-0.420061 0.279729,-0.279729 0.420061,-0.617459 0.420061,-1.01226 0,-0.398542 -0.141266,-0.739082 -0.423802,-1.021618 -0.27318,-0.277856 -0.613718,-0.416318 -1.021617,-0.416318 z m 0,0"
           style="fill:#ffffff;fill-opacity:1;fill-rule:nonzero;stroke:none;stroke-width:0.2395"
           inkscape:connector-curvature="0" />
        <path
           id="path51"
           d="m 55.651475,52.240103 -1.094589,-1.902902 h -0.130977 v 1.902902 h -1.05623 v -4.876067 h 1.597911 c 0.423802,0 0.779311,0.14501 1.065587,0.433157 0.292827,0.292827 0.439708,0.663304 0.439708,1.110493 0,0.581911 -0.261017,1.018811 -0.783052,1.311638 l 1.161947,2.020779 z m -1.225566,-2.867449 h 0.541681 c 0.152494,0 0.270374,-0.05613 0.352702,-0.1684 0.06362,-0.087 0.09543,-0.19085 0.09543,-0.31247 0,-0.145947 -0.04491,-0.26476 -0.136591,-0.356443 -0.08046,-0.08046 -0.184303,-0.120686 -0.311537,-0.120686 h -0.541681 z m 0,0"
           style="fill:#ffffff;fill-opacity:1;fill-rule:nonzero;stroke:none;stroke-width:0.2395"
           inkscape:connector-curvature="0" />
        <path
           id="path53"
           d="M 57.922981,52.240103 V 47.364036 H 58.9736 v 1.887931 l 1.180657,-1.887931 h 1.200306 l -1.49313,2.444582 1.51839,2.431485 H 60.148646 L 58.9736,50.149157 v 2.090946 z m 0,0"
           style="fill:#ffffff;fill-opacity:1;fill-rule:nonzero;stroke:none;stroke-width:0.2395"
           inkscape:connector-curvature="0" />
        <g
           transform="matrix(0.23949978,0,0,0.23949978,19.133372,23.107199)"
           id="g57"
           clip-rule="nonzero"
           clip-path="url(#clip1)"
           style="fill:#ffffff">
          <path
             id="path55"
             d="m 179.52734,117.20313 3.53516,-1.52735 c 0.67187,1.20313 1.48047,1.80469 2.41797,1.80469 0.46094,0 0.84765,-0.15234 1.15625,-0.46484 0.33594,-0.32813 0.5039,-0.76172 0.5039,-1.30079 0,-0.78125 -0.30859,-1.36328 -0.92968,-1.7539 -0.25782,-0.16016 -0.78907,-0.38281 -1.59375,-0.66406 -3.32422,-1.17969 -4.98438,-3.21875 -4.98438,-6.11329 0,-1.80859 0.5586,-3.27343 1.67578,-4.39843 1.09766,-1.10938 2.51953,-1.66016 4.26563,-1.66016 1.50781,0 2.80859,0.48438 3.90625,1.46094 0.6289,0.5664 1.1289,1.32812 1.5039,2.28515 l -3.92187,1.88672 c -0.46094,-0.8164 -0.98828,-1.22265 -1.58203,-1.22265 -0.45313,0 -0.83203,0.20703 -1.14063,0.625 -0.21484,0.30078 -0.32031,0.625 -0.32031,0.96875 0,0.80859 0.75391,1.5 2.25781,2.07422 l 0.35938,0.13281 c 3.26172,1.25781 4.89062,3.36328 4.89062,6.3125 0,1.82422 -0.59375,3.33203 -1.78125,4.51953 -1.13281,1.125 -2.49609,1.6875 -4.09375,1.6875 h -0.22265 c -2.10157,0 -3.7461,-0.875 -4.9336,-2.62109 -0.41406,-0.60938 -0.73828,-1.28907 -0.96875,-2.03125 z m 0,0"
             style="fill:#ffffff;fill-opacity:1;fill-rule:nonzero;stroke:none"
             inkscape:connector-curvature="0" />
        </g>
      </g>
    </g>
    <rect
       y="18.785416"
       x="12.7"
       height="40.745834"
       width="59.002079"
       id="rect915"
       style="fill:#484848;fill-opacity:0;stroke-width:0.150524" />
  </g>
</svg>
